<?xml version="1.0" encoding="utf-8"?>
<!-- Generator: Adobe Illustrator 26.4.1, SVG Export Plug-In . SVG Version: 6.00 Build 0)  -->
<svg version="1.1" id="Layer_1" xmlns="http://www.w3.org/2000/svg" xmlns:xlink="http://www.w3.org/1999/xlink" x="0px" y="0px"
	 viewBox="0 0 40 40" style="enable-background:new 0 0 40 40;" xml:space="preserve">
<style type="text/css">
	.st0{display:none;}
	.st1{display:inline;fill:#686867;}
	.st2{display:inline;}
	.st3{fill:#FFFFFF;}
	.st4{display:inline;fill:#FFFFFF;}
	.st5{fill:#686867;}
	.st6{fill:none;stroke:#FF5A5F;stroke-width:1.75;stroke-linejoin:round;stroke-miterlimit:10;}
</style>
<g class="st0">
	<path class="st1" d="M34.2,12.8H12.7c-1.4,0-2.5-1.1-2.5-2.5l0,0c0-1.4,1.1-2.5,2.5-2.5h21.5c1.4,0,2.5,1.1,2.5,2.5l0,0
		C36.7,11.7,35.6,12.8,34.2,12.8z"/>
	<path class="st1" d="M34.2,29.8H12.7c-1.4,0-2.5-1.1-2.5-2.5l0,0c0-1.4,1.1-2.5,2.5-2.5h21.5c1.4,0,2.5,1.1,2.5,2.5l0,0
		C36.7,28.7,35.6,29.8,34.2,29.8z"/>
	<path class="st1" d="M34.2,21.3H12.7c-1.4,0-2.5-1.1-2.5-2.5l0,0c0-1.4,1.1-2.5,2.5-2.5h21.5c1.4,0,2.5,1.1,2.5,2.5l0,0
		C36.7,20.2,35.6,21.3,34.2,21.3z"/>
</g>
<g class="st0">
	<path class="st1" d="M20,20.2c6.2,0,11.3,4.7,11.9,10.7c2.7-2.9,4.4-6.8,4.4-11.1c0-9-7.3-16.3-16.3-16.3S3.7,10.9,3.7,19.9
		c0,4.3,1.7,8.2,4.4,11.1C8.7,24.9,13.8,20.2,20,20.2z"/>
	<path class="st1" d="M20,19.9c-6.2,0-11.3-4.7-11.9-10.7C5.4,12.1,3.7,16,3.7,20.3c0,9,7.3,16.3,16.3,16.3s16.3-7.3,16.3-16.3
		c0-4.3-1.7-8.2-4.4-11.1C31.3,15.2,26.2,19.9,20,19.9z"/>
</g>
<g class="st0">
	<g class="st2">
		<path class="st3" d="M20.1,35c3.8,0,7.2-1.2,9.6-3.8c-0.5-4.9-4.6-9.1-9.6-9.1s-9.2,4.2-9.7,9.1C12.8,33.8,16.2,35,20.1,35z"/>
	</g>
	<circle class="st4" cx="20" cy="18.9" r="6.6"/>
	<g class="st2">
		<g>
			<circle class="st3" cx="16" cy="11.1" r="0.5"/>
			<circle class="st3" cx="17.3" cy="10.8" r="0.5"/>
			<circle class="st3" cx="18.6" cy="10.5" r="0.5"/>
			<circle class="st3" cx="20" cy="10.4" r="0.5"/>
			<circle class="st3" cx="21.4" cy="10.5" r="0.5"/>
			<circle class="st3" cx="22.7" cy="10.8" r="0.5"/>
			<path class="st3" d="M20,13.6c2,0,4.5,0.5,4.5,0.5V12c-1.4-0.7-4.5-0.9-4.5-0.9c-2.3,0-4.5,0.8-4.5,0.8v2.1
				C15.5,14.1,17.9,13.6,20,13.6z"/>
			<circle class="st3" cx="24" cy="11.1" r="0.5"/>
			<polygon class="st3" points="16.6,11.9 16,11.3 15.6,12.1 			"/>
			<polygon class="st3" points="18,11.6 17.4,11 16.9,11.7 			"/>
			<polygon class="st3" points="19.2,11.3 18.6,10.7 18.2,11.4 			"/>
			<polygon class="st3" points="20.5,11.2 20,10.6 19.5,11.2 			"/>
			<polygon class="st3" points="21.8,11.4 21.3,10.7 20.7,11.3 			"/>
			<polygon class="st3" points="23.1,11.7 22.7,11 22,11.5 			"/>
			<polygon class="st3" points="24.3,12.1 24,11.3 23.3,11.8 			"/>
		</g>
		<polygon class="st5" points="16.2,12.3 16.5,12.6 16.5,13.1 16.2,13.4 15.9,13.1 15.9,12.6 		"/>
		<polygon class="st5" points="17.5,12 17.8,12.3 17.8,12.8 17.5,13.1 17.2,12.8 17.2,12.3 		"/>
		<polygon class="st5" points="18.7,11.8 19,12.1 19,12.6 18.7,12.9 18.4,12.6 18.4,12.1 		"/>
		<polygon class="st5" points="20,11.6 20.3,11.9 20.3,12.4 20,12.7 19.7,12.4 19.7,11.9 		"/>
		<polygon class="st5" points="21.3,11.8 21.5,12.1 21.5,12.6 21.3,12.9 21,12.6 21,12.1 		"/>
		<polygon class="st5" points="22.5,12 22.8,12.3 22.8,12.8 22.5,13.1 22.2,12.8 22.2,12.3 		"/>
		<polygon class="st5" points="23.8,12.3 24.1,12.6 24.1,13.1 23.8,13.4 23.5,13.1 23.5,12.6 		"/>
	</g>
</g>
<path class="st6" d="M35,31.3V8.2c0,0,0.3-4.2-2.5-4.4c0,0-1.4,0-1.4,0c0,0,0,2.4-0.1,2.4c-0.2,0-1.9,0-2.7,0c0,0-0.1-2.4-0.1-2.4
	c-1,0,0.2,0-0.9,0c-3.3,0-2.9,2-2.9,4.4l0,0.1h0c0,2.3,0.4,5.4-2.9,5.4h-2.7c-3.3,0-2.9-3-2.9-5.4l0-0.1c0-2.3,0.4-4.4-2.9-4.4
	c-1.2,0,0,0-0.9,0c0,0-0.1,2.4-0.1,2.4c-0.8,0-2.5,0-2.7,0C9,6.3,9,3.9,9,3.9c-0.1,0-1.4,0-1.4,0C4.7,4,5,8.2,5,8.2v23.1
	c0,0-0.1,4.1,4.1,4.1c0,0,2.7,0.4,5.9-0.4c4.5-1.1,9.9-7.1,9.9-12.5c0-2.7-2.2-4.8-4.8-4.8s-4.9,2.2-4.8,4.8
	c0,5.3,6.3,11.6,10.9,12.5c2.7,0.5,4.8,0.4,4.8,0.4C35.1,35.4,35,31.3,35,31.3L35,31.3z"/>
</svg>
